G04*
G04 #@! TF.GenerationSoftware,Altium Limited,Altium Designer,18.0.12 (696)*
G04*
G04 Layer_Color=32896*
%FSLAX25Y25*%
%MOIN*%
G70*
G01*
G75*
%ADD10C,0.01000*%
D10*
X226500Y161864D02*
Y157580D01*
X226214Y156723D01*
X225643Y156151D01*
X224786Y155866D01*
X224215D01*
X223358Y156151D01*
X222786Y156723D01*
X222501Y157580D01*
Y161864D01*
X220844D02*
X218559Y155866D01*
X216274Y161864D02*
X218559Y155866D01*
X215502Y161864D02*
Y155866D01*
X209961Y160436D02*
X210246Y161008D01*
X210818Y161579D01*
X211389Y161864D01*
X212532D01*
X213103Y161579D01*
X213674Y161008D01*
X213960Y160436D01*
X214246Y159579D01*
Y158151D01*
X213960Y157294D01*
X213674Y156723D01*
X213103Y156151D01*
X212532Y155866D01*
X211389D01*
X210818Y156151D01*
X210246Y156723D01*
X209961Y157294D01*
X203562Y161864D02*
Y155866D01*
Y161864D02*
X199849D01*
X203562Y159008D02*
X201277D01*
X195164Y161008D02*
X195735Y161579D01*
X196592Y161864D01*
X197735D01*
X198592Y161579D01*
X199163Y161008D01*
Y160436D01*
X198877Y159865D01*
X198592Y159579D01*
X198020Y159294D01*
X196307Y158722D01*
X195735Y158437D01*
X195449Y158151D01*
X195164Y157580D01*
Y156723D01*
X195735Y156151D01*
X196592Y155866D01*
X197735D01*
X198592Y156151D01*
X199163Y156723D01*
X189251Y155866D02*
X191536Y161864D01*
X193821Y155866D01*
X192964Y157865D02*
X190108D01*
X184138Y161864D02*
X187851D01*
Y155866D01*
X184138D01*
X187851Y159008D02*
X185566D01*
X226500Y151980D02*
Y145982D01*
X223072D01*
X221844Y151980D02*
X221558Y151695D01*
X221273Y151980D01*
X221558Y152266D01*
X221844Y151980D01*
X221558Y149981D02*
Y145982D01*
X220216Y151980D02*
Y145982D01*
X214246Y151980D02*
Y145982D01*
Y151980D02*
X211675D01*
X210818Y151695D01*
X210532Y151409D01*
X210246Y150838D01*
Y150267D01*
X210532Y149695D01*
X210818Y149409D01*
X211675Y149124D01*
X214246D02*
X211675D01*
X210818Y148838D01*
X210532Y148553D01*
X210246Y147981D01*
Y147124D01*
X210532Y146553D01*
X210818Y146267D01*
X211675Y145982D01*
X214246D01*
X208904Y149981D02*
Y147124D01*
X208618Y146267D01*
X208047Y145982D01*
X207190D01*
X206619Y146267D01*
X205762Y147124D01*
Y149981D02*
Y145982D01*
X201905Y151980D02*
X202477D01*
X203048Y151695D01*
X203333Y150838D01*
Y145982D01*
X204190Y149981D02*
X202191D01*
X198763Y151980D02*
X199334D01*
X199906Y151695D01*
X200191Y150838D01*
Y145982D01*
X201048Y149981D02*
X199049D01*
X193193Y148553D02*
X188051D01*
X181567Y151980D02*
Y147696D01*
X181281Y146839D01*
X180710Y146267D01*
X179853Y145982D01*
X179281D01*
X178425Y146267D01*
X177853Y146839D01*
X177568Y147696D01*
Y151980D01*
X175911D02*
X173626Y145982D01*
X171340Y151980D02*
X173626Y145982D01*
X170569Y150838D02*
X169998Y151123D01*
X169141Y151980D01*
Y145982D01*
X162457Y149981D02*
X162742Y149124D01*
X163313Y148553D01*
X164171Y148267D01*
X164456D01*
X165313Y148553D01*
X165884Y149124D01*
X166170Y149981D01*
Y150267D01*
X165884Y151123D01*
X165313Y151695D01*
X164456Y151980D01*
X164171D01*
X163313Y151695D01*
X162742Y151123D01*
X162457Y149981D01*
Y148553D01*
X162742Y147124D01*
X163313Y146267D01*
X164171Y145982D01*
X164742D01*
X165599Y146267D01*
X165884Y146839D01*
X156115Y151980D02*
X153830Y145982D01*
X151545Y151980D02*
X153830Y145982D01*
X150773Y150838D02*
X150202Y151123D01*
X149345Y151980D01*
Y145982D01*
X226500Y142096D02*
Y136098D01*
Y142096D02*
X224215Y136098D01*
X221930Y142096D02*
X224215Y136098D01*
X221930Y142096D02*
Y136098D01*
X219644Y142096D02*
X219359Y141811D01*
X219073Y142096D01*
X219359Y142382D01*
X219644Y142096D01*
X219359Y140097D02*
Y136098D01*
X218016Y140097D02*
Y136098D01*
Y138383D02*
X217730Y139240D01*
X217159Y139811D01*
X216588Y140097D01*
X215731D01*
X211760D02*
Y136098D01*
Y139240D02*
X212332Y139811D01*
X212903Y140097D01*
X213760D01*
X214331Y139811D01*
X214902Y139240D01*
X215188Y138383D01*
Y137812D01*
X214902Y136954D01*
X214331Y136383D01*
X213760Y136098D01*
X212903D01*
X212332Y136383D01*
X211760Y136954D01*
X210161Y140097D02*
Y136098D01*
Y138954D02*
X209304Y139811D01*
X208732Y140097D01*
X207875D01*
X207304Y139811D01*
X207018Y138954D01*
Y136098D01*
X202020Y142096D02*
Y136098D01*
Y139240D02*
X202591Y139811D01*
X203162Y140097D01*
X204019D01*
X204590Y139811D01*
X205162Y139240D01*
X205447Y138383D01*
Y137812D01*
X205162Y136954D01*
X204590Y136383D01*
X204019Y136098D01*
X203162D01*
X202591Y136383D01*
X202020Y136954D01*
X196992Y140097D02*
Y136098D01*
Y139240D02*
X197563Y139811D01*
X198135Y140097D01*
X198992D01*
X199563Y139811D01*
X200134Y139240D01*
X200420Y138383D01*
Y137812D01*
X200134Y136954D01*
X199563Y136383D01*
X198992Y136098D01*
X198135D01*
X197563Y136383D01*
X196992Y136954D01*
X190679Y142096D02*
Y136098D01*
X186680Y142096D02*
X190679Y138097D01*
X189251Y139525D02*
X186680Y136098D01*
X185337Y138383D02*
X181910D01*
Y138954D01*
X182195Y139525D01*
X182481Y139811D01*
X183052Y140097D01*
X183909D01*
X184480Y139811D01*
X185052Y139240D01*
X185337Y138383D01*
Y137812D01*
X185052Y136954D01*
X184480Y136383D01*
X183909Y136098D01*
X183052D01*
X182481Y136383D01*
X181910Y136954D01*
X180624Y140097D02*
Y136098D01*
Y138954D02*
X179767Y139811D01*
X179196Y140097D01*
X178339D01*
X177768Y139811D01*
X177482Y138954D01*
Y136098D01*
X175911Y140097D02*
Y136098D01*
Y138954D02*
X175054Y139811D01*
X174483Y140097D01*
X173626D01*
X173054Y139811D01*
X172769Y138954D01*
Y136098D01*
X171198Y138383D02*
X167770D01*
Y138954D01*
X168055Y139525D01*
X168341Y139811D01*
X168912Y140097D01*
X169769D01*
X170341Y139811D01*
X170912Y139240D01*
X171198Y138383D01*
Y137812D01*
X170912Y136954D01*
X170341Y136383D01*
X169769Y136098D01*
X168912D01*
X168341Y136383D01*
X167770Y136954D01*
X163056Y142096D02*
Y136098D01*
Y139240D02*
X163628Y139811D01*
X164199Y140097D01*
X165056D01*
X165627Y139811D01*
X166199Y139240D01*
X166484Y138383D01*
Y137812D01*
X166199Y136954D01*
X165627Y136383D01*
X165056Y136098D01*
X164199D01*
X163628Y136383D01*
X163056Y136954D01*
X161171Y140097D02*
X159457Y136098D01*
X157743Y140097D02*
X159457Y136098D01*
X160029Y134955D01*
X160600Y134384D01*
X161171Y134098D01*
X161457D01*
X222501Y129641D02*
X223072Y130213D01*
X223929Y130498D01*
X225072D01*
X225929Y130213D01*
X226500Y129641D01*
Y129070D01*
X226214Y128499D01*
X225929Y128213D01*
X225357Y127927D01*
X223643Y127356D01*
X223072Y127070D01*
X222786Y126785D01*
X222501Y126214D01*
Y125356D01*
X223072Y124785D01*
X223929Y124500D01*
X225072D01*
X225929Y124785D01*
X226500Y125356D01*
X221158Y128499D02*
Y122500D01*
Y127642D02*
X220587Y128213D01*
X220016Y128499D01*
X219159D01*
X218587Y128213D01*
X218016Y127642D01*
X217730Y126785D01*
Y126214D01*
X218016Y125356D01*
X218587Y124785D01*
X219159Y124500D01*
X220016D01*
X220587Y124785D01*
X221158Y125356D01*
X216445Y126785D02*
X213017D01*
Y127356D01*
X213303Y127927D01*
X213589Y128213D01*
X214160Y128499D01*
X215017D01*
X215588Y128213D01*
X216159Y127642D01*
X216445Y126785D01*
Y126214D01*
X216159Y125356D01*
X215588Y124785D01*
X215017Y124500D01*
X214160D01*
X213589Y124785D01*
X213017Y125356D01*
X211732Y128499D02*
Y124500D01*
Y127356D02*
X210875Y128213D01*
X210303Y128499D01*
X209447D01*
X208875Y128213D01*
X208590Y127356D01*
Y124500D01*
X203591Y127642D02*
X204162Y128213D01*
X204733Y128499D01*
X205590D01*
X206161Y128213D01*
X206733Y127642D01*
X207018Y126785D01*
Y126214D01*
X206733Y125356D01*
X206161Y124785D01*
X205590Y124500D01*
X204733D01*
X204162Y124785D01*
X203591Y125356D01*
X202305Y126785D02*
X198877D01*
Y127356D01*
X199163Y127927D01*
X199449Y128213D01*
X200020Y128499D01*
X200877D01*
X201448Y128213D01*
X202020Y127642D01*
X202305Y126785D01*
Y126214D01*
X202020Y125356D01*
X201448Y124785D01*
X200877Y124500D01*
X200020D01*
X199449Y124785D01*
X198877Y125356D01*
X197592Y128499D02*
Y124500D01*
Y126785D02*
X197306Y127642D01*
X196735Y128213D01*
X196164Y128499D01*
X195307D01*
X186051Y129641D02*
X186623Y130213D01*
X187480Y130498D01*
X188622D01*
X189479Y130213D01*
X190051Y129641D01*
Y129070D01*
X189765Y128499D01*
X189479Y128213D01*
X188908Y127927D01*
X187194Y127356D01*
X186623Y127070D01*
X186337Y126785D01*
X186051Y126214D01*
Y125356D01*
X186623Y124785D01*
X187480Y124500D01*
X188622D01*
X189479Y124785D01*
X190051Y125356D01*
X183852Y130498D02*
Y125642D01*
X183566Y124785D01*
X182995Y124500D01*
X182424D01*
X184709Y128499D02*
X182709D01*
X181567Y126785D02*
X178139D01*
Y127356D01*
X178425Y127927D01*
X178710Y128213D01*
X179281Y128499D01*
X180139D01*
X180710Y128213D01*
X181281Y127642D01*
X181567Y126785D01*
Y126214D01*
X181281Y125356D01*
X180710Y124785D01*
X180139Y124500D01*
X179281D01*
X178710Y124785D01*
X178139Y125356D01*
X176854Y126785D02*
X173426D01*
Y127356D01*
X173711Y127927D01*
X173997Y128213D01*
X174568Y128499D01*
X175425D01*
X175996Y128213D01*
X176568Y127642D01*
X176854Y126785D01*
Y126214D01*
X176568Y125356D01*
X175996Y124785D01*
X175425Y124500D01*
X174568D01*
X173997Y124785D01*
X173426Y125356D01*
X172140Y130498D02*
Y124500D01*
X170883Y126785D02*
X167455D01*
Y127356D01*
X167741Y127927D01*
X168027Y128213D01*
X168598Y128499D01*
X169455D01*
X170026Y128213D01*
X170598Y127642D01*
X170883Y126785D01*
Y126214D01*
X170598Y125356D01*
X170026Y124785D01*
X169455Y124500D01*
X168598D01*
X168027Y124785D01*
X167455Y125356D01*
M02*
