G04*
G04 #@! TF.GenerationSoftware,Altium Limited,Altium Designer,18.0.12 (696)*
G04*
G04 Layer_Physical_Order=2*
G04 Layer_Color=16711680*
%FSLAX25Y25*%
%MOIN*%
G70*
G01*
G75*
%ADD24R,0.07874X0.07874*%
%ADD25C,0.07874*%
%ADD26C,0.19685*%
%ADD27C,0.03150*%
G36*
X227471Y101529D02*
X138529D01*
Y173971D01*
X227471D01*
Y101529D01*
D02*
G37*
%LPC*%
G36*
X152000Y172376D02*
X150299Y172242D01*
X148639Y171844D01*
X147062Y171191D01*
X145607Y170299D01*
X144309Y169191D01*
X143201Y167893D01*
X142309Y166438D01*
X141656Y164861D01*
X141258Y163201D01*
X141124Y161500D01*
X141258Y159799D01*
X141656Y158139D01*
X142309Y156562D01*
X143201Y155107D01*
X144309Y153809D01*
X145607Y152701D01*
X147062Y151809D01*
X148639Y151156D01*
X150299Y150758D01*
X152000Y150624D01*
X153701Y150758D01*
X155361Y151156D01*
X156938Y151809D01*
X158393Y152701D01*
X159690Y153809D01*
X160799Y155107D01*
X161691Y156562D01*
X162344Y158139D01*
X162742Y159799D01*
X162876Y161500D01*
X162742Y163201D01*
X162344Y164861D01*
X161691Y166438D01*
X160799Y167893D01*
X159690Y169191D01*
X158393Y170299D01*
X156938Y171191D01*
X155361Y171844D01*
X153701Y172242D01*
X152000Y172376D01*
D02*
G37*
G36*
X165500Y144531D02*
Y142500D01*
X167531D01*
X167508Y142672D01*
X167249Y143298D01*
X166836Y143836D01*
X166298Y144249D01*
X165672Y144509D01*
X165500Y144531D01*
D02*
G37*
G36*
X164500D02*
X164328Y144509D01*
X163701Y144249D01*
X163164Y143836D01*
X162751Y143298D01*
X162492Y142672D01*
X162469Y142500D01*
X164500D01*
Y144531D01*
D02*
G37*
G36*
X167531Y141500D02*
X165500D01*
Y139469D01*
X165672Y139491D01*
X166298Y139751D01*
X166836Y140164D01*
X167249Y140701D01*
X167508Y141328D01*
X167531Y141500D01*
D02*
G37*
G36*
X164500D02*
X162469D01*
X162492Y141328D01*
X162751Y140701D01*
X163164Y140164D01*
X163701Y139751D01*
X164328Y139491D01*
X164500Y139469D01*
Y141500D01*
D02*
G37*
G36*
X173500Y112980D02*
X172211Y112810D01*
X171010Y112312D01*
X169979Y111521D01*
X169187Y110490D01*
X168771Y109483D01*
X168229D01*
X167813Y110490D01*
X167021Y111521D01*
X165990Y112312D01*
X164789Y112810D01*
X163500Y112980D01*
X162211Y112810D01*
X161010Y112312D01*
X159979Y111521D01*
X159187Y110490D01*
X158937Y109885D01*
X158437Y109984D01*
Y112937D01*
X148563D01*
Y103063D01*
X158437D01*
Y106016D01*
X158937Y106115D01*
X159187Y105510D01*
X159979Y104479D01*
X161010Y103688D01*
X162211Y103190D01*
X163500Y103020D01*
X164789Y103190D01*
X165990Y103688D01*
X167021Y104479D01*
X167813Y105510D01*
X168229Y106517D01*
X168771D01*
X169187Y105510D01*
X169979Y104479D01*
X171010Y103688D01*
X172211Y103190D01*
X173500Y103020D01*
X174789Y103190D01*
X175990Y103688D01*
X177021Y104479D01*
X177813Y105510D01*
X178229Y106517D01*
X178771D01*
X179188Y105510D01*
X179979Y104479D01*
X181010Y103688D01*
X182211Y103190D01*
X183000Y103086D01*
Y108000D01*
Y112914D01*
X182211Y112810D01*
X181010Y112312D01*
X179979Y111521D01*
X179188Y110490D01*
X178771Y109483D01*
X178229D01*
X177813Y110490D01*
X177021Y111521D01*
X175990Y112312D01*
X174789Y112810D01*
X173500Y112980D01*
D02*
G37*
G36*
X184000Y112914D02*
Y108500D01*
X188414D01*
X188310Y109289D01*
X187812Y110490D01*
X187021Y111521D01*
X185990Y112312D01*
X184789Y112810D01*
X184000Y112914D01*
D02*
G37*
G36*
X214000Y126376D02*
X212299Y126242D01*
X210639Y125844D01*
X209062Y125191D01*
X207607Y124299D01*
X206310Y123190D01*
X205201Y121893D01*
X204309Y120438D01*
X203656Y118861D01*
X203258Y117201D01*
X203124Y115500D01*
X203258Y113799D01*
X203656Y112139D01*
X204309Y110562D01*
X205201Y109107D01*
X206310Y107809D01*
X207607Y106701D01*
X209062Y105809D01*
X210639Y105156D01*
X212299Y104758D01*
X214000Y104624D01*
X215701Y104758D01*
X217361Y105156D01*
X218938Y105809D01*
X220393Y106701D01*
X221691Y107809D01*
X222799Y109107D01*
X223691Y110562D01*
X224344Y112139D01*
X224742Y113799D01*
X224876Y115500D01*
X224742Y117201D01*
X224344Y118861D01*
X223691Y120438D01*
X222799Y121893D01*
X221691Y123190D01*
X220393Y124299D01*
X218938Y125191D01*
X217361Y125844D01*
X215701Y126242D01*
X214000Y126376D01*
D02*
G37*
G36*
X188414Y107500D02*
X184000D01*
Y103086D01*
X184789Y103190D01*
X185990Y103688D01*
X187021Y104479D01*
X187812Y105510D01*
X188310Y106711D01*
X188414Y107500D01*
D02*
G37*
%LPD*%
D24*
X153500Y108000D02*
D03*
D25*
X163500D02*
D03*
X173500D02*
D03*
X183500D02*
D03*
D26*
X214000Y115500D02*
D03*
X152000Y161500D02*
D03*
D27*
X165000Y142000D02*
D03*
M02*
